<mxfile host="Electron" modified="2023-12-30T07:23:31.855Z" agent="Mozilla/5.0 (Windows NT 10.0; Win64; x64) AppleWebKit/537.36 (KHTML, like Gecko) draw.io/22.1.2 Chrome/114.0.5735.289 Electron/25.9.4 Safari/537.36" etag="jxhPFhLLzdBcrb8kyqdc" version="22.1.2" type="device">
  <diagram name="第 1 页" id="Ci3ibUs5d5YA2MTepvaQ">
    <mxGraphModel dx="2322" dy="874" grid="1" gridSize="10" guides="1" tooltips="1" connect="1" arrows="1" fold="1" page="1" pageScale="1" pageWidth="827" pageHeight="1169" math="0" shadow="0">
      <root>
        <mxCell id="0" />
        <mxCell id="1" parent="0" />
        <mxCell id="shEoZka6rONAJLujR-b--45" value="" style="rounded=0;whiteSpace=wrap;html=1;" vertex="1" parent="1">
          <mxGeometry x="-100" y="520" width="1000" height="680" as="geometry" />
        </mxCell>
        <mxCell id="1vbWGbHBtsvA9wGUykn0-41" value="" style="swimlane;startSize=0;swimlaneFillColor=#FFFFFF;" parent="1" vertex="1">
          <mxGeometry x="60" y="50" width="200" height="200" as="geometry">
            <mxRectangle x="750" y="240" width="50" height="40" as="alternateBounds" />
          </mxGeometry>
        </mxCell>
        <mxCell id="1vbWGbHBtsvA9wGUykn0-43" value="AbilitySystemComponent" style="rounded=0;whiteSpace=wrap;html=1;" parent="1vbWGbHBtsvA9wGUykn0-41" vertex="1">
          <mxGeometry width="150" height="30" as="geometry" />
        </mxCell>
        <mxCell id="1vbWGbHBtsvA9wGUykn0-44" value="" style="swimlane;startSize=0;swimlaneFillColor=#FFFFFF;" parent="1" vertex="1">
          <mxGeometry x="310" y="50" width="200" height="200" as="geometry">
            <mxRectangle x="750" y="240" width="50" height="40" as="alternateBounds" />
          </mxGeometry>
        </mxCell>
        <mxCell id="1vbWGbHBtsvA9wGUykn0-45" value="AttributeSet" style="rounded=0;whiteSpace=wrap;html=1;" parent="1vbWGbHBtsvA9wGUykn0-44" vertex="1">
          <mxGeometry width="80" height="30" as="geometry" />
        </mxCell>
        <mxCell id="shEoZka6rONAJLujR-b--1" value="&lt;font style=&quot;font-size: 24px;&quot;&gt;UI架构&lt;/font&gt;" style="text;html=1;strokeColor=none;fillColor=none;align=center;verticalAlign=middle;whiteSpace=wrap;rounded=0;" vertex="1" parent="1">
          <mxGeometry x="30" y="350" width="90" height="40" as="geometry" />
        </mxCell>
        <mxCell id="shEoZka6rONAJLujR-b--3" value="Widget" style="swimlane;whiteSpace=wrap;html=1;swimlaneFillColor=default;" vertex="1" parent="1">
          <mxGeometry x="10" y="840" width="200" height="200" as="geometry" />
        </mxCell>
        <mxCell id="shEoZka6rONAJLujR-b--39" value="Update UI" style="swimlane;fontStyle=0;childLayout=stackLayout;horizontal=1;startSize=30;horizontalStack=0;resizeParent=1;resizeParentMax=0;resizeLast=0;collapsible=1;marginBottom=0;whiteSpace=wrap;html=1;fillColor=#d5e8d4;strokeColor=#82b366;" vertex="1" parent="shEoZka6rONAJLujR-b--3">
          <mxGeometry x="10" y="130" width="180" height="60" as="geometry" />
        </mxCell>
        <mxCell id="shEoZka6rONAJLujR-b--40" value="&lt;span style=&quot;font-size: 10px;&quot;&gt;这里更新UI中具体的值&lt;/span&gt;" style="text;strokeColor=none;fillColor=none;align=left;verticalAlign=middle;spacingLeft=4;spacingRight=4;overflow=hidden;points=[[0,0.5],[1,0.5]];portConstraint=eastwest;rotatable=0;whiteSpace=wrap;html=1;" vertex="1" parent="shEoZka6rONAJLujR-b--39">
          <mxGeometry y="30" width="180" height="30" as="geometry" />
        </mxCell>
        <mxCell id="shEoZka6rONAJLujR-b--42" value="WidgetController*" style="swimlane;fontStyle=0;childLayout=stackLayout;horizontal=1;startSize=30;horizontalStack=0;resizeParent=1;resizeParentMax=0;resizeLast=0;collapsible=1;marginBottom=0;whiteSpace=wrap;html=1;fillColor=#dae8fc;strokeColor=#6c8ebf;" vertex="1" parent="shEoZka6rONAJLujR-b--3">
          <mxGeometry y="55" width="180" height="60" as="geometry" />
        </mxCell>
        <mxCell id="shEoZka6rONAJLujR-b--43" value="&lt;span style=&quot;font-size: 10px;&quot;&gt;用来绑定callback&#39;到controller的delegate上&lt;/span&gt;" style="text;strokeColor=none;fillColor=none;align=left;verticalAlign=middle;spacingLeft=4;spacingRight=4;overflow=hidden;points=[[0,0.5],[1,0.5]];portConstraint=eastwest;rotatable=0;whiteSpace=wrap;html=1;" vertex="1" parent="shEoZka6rONAJLujR-b--42">
          <mxGeometry y="30" width="180" height="30" as="geometry" />
        </mxCell>
        <mxCell id="shEoZka6rONAJLujR-b--4" value="Widget Controller" style="swimlane;whiteSpace=wrap;html=1;swimlaneFillColor=default;" vertex="1" parent="1">
          <mxGeometry x="300" y="840" width="250" height="290" as="geometry">
            <mxRectangle x="300" y="840" width="140" height="30" as="alternateBounds" />
          </mxGeometry>
        </mxCell>
        <mxCell id="shEoZka6rONAJLujR-b--36" style="edgeStyle=orthogonalEdgeStyle;rounded=0;orthogonalLoop=1;jettySize=auto;html=1;exitX=0.5;exitY=1;exitDx=0;exitDy=0;entryX=0.5;entryY=0;entryDx=0;entryDy=0;" edge="1" parent="shEoZka6rONAJLujR-b--4" source="shEoZka6rONAJLujR-b--30" target="shEoZka6rONAJLujR-b--34">
          <mxGeometry relative="1" as="geometry" />
        </mxCell>
        <mxCell id="shEoZka6rONAJLujR-b--30" value="UpdateAttribute" style="swimlane;fontStyle=0;childLayout=stackLayout;horizontal=1;startSize=30;horizontalStack=0;resizeParent=1;resizeParentMax=0;resizeLast=0;collapsible=1;marginBottom=0;whiteSpace=wrap;html=1;fillColor=#d5e8d4;strokeColor=#82b366;" vertex="1" parent="shEoZka6rONAJLujR-b--4">
          <mxGeometry x="35" y="40" width="180" height="60" as="geometry" />
        </mxCell>
        <mxCell id="shEoZka6rONAJLujR-b--31" value="&lt;font style=&quot;font-size: 10px;&quot;&gt;这个callback绑定在ASC的delegate上，每次属性值更新会触发&lt;/font&gt;" style="text;strokeColor=none;fillColor=none;align=left;verticalAlign=middle;spacingLeft=4;spacingRight=4;overflow=hidden;points=[[0,0.5],[1,0.5]];portConstraint=eastwest;rotatable=0;whiteSpace=wrap;html=1;" vertex="1" parent="shEoZka6rONAJLujR-b--30">
          <mxGeometry y="30" width="180" height="30" as="geometry" />
        </mxCell>
        <mxCell id="shEoZka6rONAJLujR-b--34" value="OnAttributeChangedDelegate" style="swimlane;fontStyle=0;childLayout=stackLayout;horizontal=1;startSize=30;horizontalStack=0;resizeParent=1;resizeParentMax=0;resizeLast=0;collapsible=1;marginBottom=0;whiteSpace=wrap;html=1;fillColor=#ffe6cc;strokeColor=#d79b00;" vertex="1" parent="shEoZka6rONAJLujR-b--4">
          <mxGeometry x="35" y="130" width="180" height="60" as="geometry" />
        </mxCell>
        <mxCell id="shEoZka6rONAJLujR-b--35" value="&lt;span style=&quot;font-size: 10px;&quot;&gt;这个delegate用触发widget中的callback&lt;/span&gt;" style="text;strokeColor=none;fillColor=none;align=left;verticalAlign=middle;spacingLeft=4;spacingRight=4;overflow=hidden;points=[[0,0.5],[1,0.5]];portConstraint=eastwest;rotatable=0;whiteSpace=wrap;html=1;" vertex="1" parent="shEoZka6rONAJLujR-b--34">
          <mxGeometry y="30" width="180" height="30" as="geometry" />
        </mxCell>
        <mxCell id="shEoZka6rONAJLujR-b--37" value="Broadcast" style="text;html=1;strokeColor=none;fillColor=none;align=center;verticalAlign=middle;whiteSpace=wrap;rounded=0;" vertex="1" parent="shEoZka6rONAJLujR-b--4">
          <mxGeometry x="130" y="110" width="50" height="10" as="geometry" />
        </mxCell>
        <mxCell id="shEoZka6rONAJLujR-b--5" value="Model（AS）" style="swimlane;whiteSpace=wrap;html=1;swimlaneFillColor=default;" vertex="1" parent="1">
          <mxGeometry x="590" y="840" width="220" height="200" as="geometry" />
        </mxCell>
        <mxCell id="shEoZka6rONAJLujR-b--22" value="AttributeValueChangeDelegate" style="swimlane;fontStyle=0;childLayout=stackLayout;horizontal=1;startSize=30;horizontalStack=0;resizeParent=1;resizeParentMax=0;resizeLast=0;collapsible=1;marginBottom=0;whiteSpace=wrap;html=1;fillColor=#ffe6cc;strokeColor=#d79b00;swimlaneFillColor=default;" vertex="1" parent="shEoZka6rONAJLujR-b--5">
          <mxGeometry x="20" y="40" width="180" height="60" as="geometry" />
        </mxCell>
        <mxCell id="shEoZka6rONAJLujR-b--27" value="&lt;font style=&quot;font-size: 10px;&quot;&gt;这个委托会在属性值更改时触发&lt;/font&gt;" style="text;strokeColor=none;fillColor=none;align=left;verticalAlign=middle;spacingLeft=4;spacingRight=4;overflow=hidden;points=[[0,0.5],[1,0.5]];portConstraint=eastwest;rotatable=0;whiteSpace=wrap;html=1;" vertex="1" parent="shEoZka6rONAJLujR-b--22">
          <mxGeometry y="30" width="180" height="30" as="geometry" />
        </mxCell>
        <mxCell id="shEoZka6rONAJLujR-b--6" value="&lt;div style=&quot;&quot;&gt;&lt;span style=&quot;background-color: initial;&quot;&gt;&lt;font style=&quot;font-size: 18px;&quot;&gt;整个UI框架分成三部分，：&lt;/font&gt;&lt;/span&gt;&lt;/div&gt;&lt;div style=&quot;&quot;&gt;&lt;span style=&quot;background-color: initial;&quot;&gt;&lt;font size=&quot;3&quot;&gt;Widget：显示在屏幕上的ui控件们&lt;/font&gt;&lt;/span&gt;&lt;/div&gt;&lt;div style=&quot;&quot;&gt;&lt;span style=&quot;background-color: initial;&quot;&gt;&lt;font size=&quot;3&quot;&gt;Widget Controller：中间层，从model那里读数据，再更新到widget中&lt;/font&gt;&lt;/span&gt;&lt;/div&gt;&lt;div style=&quot;&quot;&gt;&lt;span style=&quot;background-color: initial;&quot;&gt;&lt;font size=&quot;3&quot;&gt;Model：存放游戏数据，这里就是我们的GAS系统&lt;/font&gt;&lt;/span&gt;&lt;/div&gt;&lt;div style=&quot;&quot;&gt;&lt;span style=&quot;background-color: initial;&quot;&gt;&lt;font size=&quot;3&quot;&gt;&lt;br&gt;&lt;/font&gt;&lt;/span&gt;&lt;/div&gt;&lt;div style=&quot;&quot;&gt;&lt;span style=&quot;background-color: initial;&quot;&gt;&lt;font size=&quot;3&quot;&gt;然后用HUD类统一管理他们&lt;/font&gt;&lt;/span&gt;&lt;/div&gt;" style="text;html=1;strokeColor=none;fillColor=none;align=left;verticalAlign=middle;whiteSpace=wrap;rounded=0;" vertex="1" parent="1">
          <mxGeometry x="220" y="320" width="560" height="120" as="geometry" />
        </mxCell>
        <mxCell id="shEoZka6rONAJLujR-b--7" value="HUD" style="swimlane;whiteSpace=wrap;html=1;swimlaneFillColor=default;" vertex="1" parent="1">
          <mxGeometry x="90" y="650" width="360" height="110" as="geometry" />
        </mxCell>
        <mxCell id="shEoZka6rONAJLujR-b--8" value="OverlayWidget*" style="rounded=0;whiteSpace=wrap;html=1;" vertex="1" parent="shEoZka6rONAJLujR-b--7">
          <mxGeometry x="40" y="70" width="100" height="30" as="geometry" />
        </mxCell>
        <mxCell id="shEoZka6rONAJLujR-b--14" value="OverlayWidgetController*" style="rounded=0;whiteSpace=wrap;html=1;" vertex="1" parent="shEoZka6rONAJLujR-b--7">
          <mxGeometry x="184" y="70" width="140" height="30" as="geometry" />
        </mxCell>
        <mxCell id="shEoZka6rONAJLujR-b--44" value="这里主要是初始化widget和controller，然后把widget显示到屏幕上" style="text;html=1;strokeColor=none;fillColor=none;align=center;verticalAlign=middle;whiteSpace=wrap;rounded=0;" vertex="1" parent="shEoZka6rONAJLujR-b--7">
          <mxGeometry x="40" y="30" width="260" height="30" as="geometry" />
        </mxCell>
        <mxCell id="shEoZka6rONAJLujR-b--15" style="edgeStyle=orthogonalEdgeStyle;rounded=0;orthogonalLoop=1;jettySize=auto;html=1;exitX=0.5;exitY=1;exitDx=0;exitDy=0;entryX=0.5;entryY=0;entryDx=0;entryDy=0;" edge="1" parent="1" source="shEoZka6rONAJLujR-b--8" target="shEoZka6rONAJLujR-b--3">
          <mxGeometry relative="1" as="geometry" />
        </mxCell>
        <mxCell id="shEoZka6rONAJLujR-b--16" style="edgeStyle=orthogonalEdgeStyle;rounded=0;orthogonalLoop=1;jettySize=auto;html=1;exitX=0.5;exitY=1;exitDx=0;exitDy=0;entryX=0.5;entryY=0;entryDx=0;entryDy=0;" edge="1" parent="1" source="shEoZka6rONAJLujR-b--14" target="shEoZka6rONAJLujR-b--4">
          <mxGeometry relative="1" as="geometry" />
        </mxCell>
        <mxCell id="shEoZka6rONAJLujR-b--18" style="edgeStyle=orthogonalEdgeStyle;rounded=0;orthogonalLoop=1;jettySize=auto;html=1;exitX=1;exitY=0.25;exitDx=0;exitDy=0;entryX=0;entryY=0.25;entryDx=0;entryDy=0;" edge="1" parent="1" source="shEoZka6rONAJLujR-b--42" target="shEoZka6rONAJLujR-b--4">
          <mxGeometry relative="1" as="geometry" />
        </mxCell>
        <mxCell id="shEoZka6rONAJLujR-b--32" style="edgeStyle=orthogonalEdgeStyle;rounded=0;orthogonalLoop=1;jettySize=auto;html=1;exitX=0;exitY=0.5;exitDx=0;exitDy=0;entryX=1;entryY=0.5;entryDx=0;entryDy=0;" edge="1" parent="1" source="shEoZka6rONAJLujR-b--22" target="shEoZka6rONAJLujR-b--30">
          <mxGeometry relative="1" as="geometry" />
        </mxCell>
        <mxCell id="shEoZka6rONAJLujR-b--41" style="edgeStyle=orthogonalEdgeStyle;rounded=0;orthogonalLoop=1;jettySize=auto;html=1;exitX=0;exitY=0.5;exitDx=0;exitDy=0;entryX=1;entryY=0.5;entryDx=0;entryDy=0;" edge="1" parent="1" source="shEoZka6rONAJLujR-b--34" target="shEoZka6rONAJLujR-b--39">
          <mxGeometry relative="1" as="geometry" />
        </mxCell>
      </root>
    </mxGraphModel>
  </diagram>
</mxfile>
